<svg width="204" height="204" viewBox="0 0 204 204" fill="none" xmlns="http://www.w3.org/2000/svg">
<mask id="mask0" mask-type="alpha" maskUnits="userSpaceOnUse" x="0" y="0" width="204" height="204">
<circle cx="101.823" cy="101.823" r="72" transform="rotate(-45 101.823 101.823)" fill="#C4C4C4"/>
</mask>
<g mask="url(#mask0)">
<rect x="-43.1338" y="144.957" width="273" height="11" transform="rotate(-45 -43.1338 144.957)" fill="#05F4F6"/>
<rect x="-29" y="160.04" width="273" height="11" transform="rotate(-45 -29 160.04)" fill="#05F4F6"/>
<rect x="-10.6064" y="177.484" width="273" height="11" transform="rotate(-45 -10.6064 177.484)" fill="#05F4F6"/>
<rect x="5.65723" y="193.747" width="273" height="11" transform="rotate(-45 5.65723 193.747)" fill="#05F4F6"/>
<rect x="38.1836" y="226.274" width="273" height="11" transform="rotate(-45 38.1836 226.274)" fill="#05F4F6"/>
<rect x="21.9209" y="210.011" width="273" height="11" transform="rotate(-45 21.9209 210.011)" fill="#05F4F6"/>
<rect x="54.4473" y="242.538" width="273" height="11" transform="rotate(-45 54.4473 242.538)" fill="#05F4F6"/>
</g>
</svg>
