<svg width="181" height="45" viewBox="0 0 181 45" fill="none" xmlns="http://www.w3.org/2000/svg">
<circle cx="3.5" cy="3.50012" r="3.5" fill="#2CD7FE"/>
<circle cx="47.5" cy="3.50012" r="3.5" fill="#2CD7FE"/>
<circle cx="89.5" cy="3.50012" r="3.5" fill="#2CD7FE"/>
<circle cx="133.5" cy="3.50012" r="3.5" fill="#2CD7FE"/>
<circle cx="24.5" cy="3.50012" r="3.5" fill="#2CD7FE"/>
<circle cx="68.5" cy="3.50012" r="3.5" fill="#2CD7FE"/>
<circle cx="110.5" cy="3.50012" r="3.5" fill="#2CD7FE"/>
<circle cx="154.5" cy="3.50012" r="3.5" fill="#2CD7FE"/>
<circle cx="177.5" cy="3.50012" r="3.5" fill="#2CD7FE"/>
<circle cx="3.5" cy="22.5001" r="3.5" fill="#2CD7FE"/>
<circle cx="47.5" cy="22.5001" r="3.5" fill="#2CD7FE"/>
<circle cx="89.5" cy="22.5001" r="3.5" fill="#2CD7FE"/>
<circle cx="133.5" cy="22.5001" r="3.5" fill="#2CD7FE"/>
<circle cx="24.5" cy="22.5001" r="3.5" fill="#2CD7FE"/>
<circle cx="68.5" cy="22.5001" r="3.5" fill="#2CD7FE"/>
<circle cx="110.5" cy="22.5001" r="3.5" fill="#2CD7FE"/>
<circle cx="154.5" cy="22.5001" r="3.5" fill="#2CD7FE"/>
<circle cx="177.5" cy="22.5001" r="3.5" fill="#2CD7FE"/>
<circle cx="3.5" cy="41.5001" r="3.5" fill="#2CD7FE"/>
<circle cx="47.5" cy="41.5001" r="3.5" fill="#2CD7FE"/>
<circle cx="89.5" cy="41.5001" r="3.5" fill="#2CD7FE"/>
<circle cx="133.5" cy="41.5001" r="3.5" fill="#2CD7FE"/>
<circle cx="24.5" cy="41.5001" r="3.5" fill="#2CD7FE"/>
<circle cx="68.5" cy="41.5001" r="3.5" fill="#2CD7FE"/>
<circle cx="110.5" cy="41.5001" r="3.5" fill="#2CD7FE"/>
<circle cx="154.5" cy="41.5001" r="3.5" fill="#2CD7FE"/>
<circle cx="177.5" cy="41.5001" r="3.5" fill="#2CD7FE"/>
</svg>
