<svg width="137" height="146" viewBox="0 0 137 146" fill="none" xmlns="http://www.w3.org/2000/svg">
<g clip-path="url(#clip0)">
<path d="M125.936 14.6089L72.076 0.478095C64.1645 -1.6008 55.9997 3.17504 53.9444 11.0411L51.861 19.0196L50.2844 24.2449L49.5242 11.8277C49.4397 10.6197 48.3135 9.80501 47.131 10.0859L7.91177 20.0309C2.30901 21.4356 -1.09769 27.1385 0.31004 32.729L12.9514 82.4258V94.8148C12.9514 106.867 22.2424 116.138 32.3218 119.284L30.4917 119.452C30.182 119.481 29.8723 119.509 29.5345 119.509C27.0569 119.593 24.4666 119.115 21.989 118.132L23.5938 124.481C25.0297 130.072 30.7169 133.471 36.3197 132.066L58.1395 126.56C57.4356 127.347 56.591 127.993 55.5774 128.47L45.4136 133.471L91.4181 145.523C99.3296 147.602 107.494 142.826 109.55 134.96L112.084 125.296C108.958 126.701 105.326 127.066 101.751 126.111C101.272 125.97 100.794 125.83 100.343 125.661L89.9823 121.756L99.4422 122.655C100.09 122.711 100.737 122.739 101.385 122.739C112.618 122.739 121.769 113.609 121.769 102.372L121.797 64.1933C121.797 59.9512 120.811 55.035 118.981 50.5401C119.347 50.8491 119.657 51.1019 119.911 51.3267C124.021 54.5855 126.724 60.766 127.54 66.3565L136.381 32.729C138.605 24.8067 133.819 16.6597 125.936 14.6089ZM106.706 94.8148C106.706 101.164 101.216 106.136 94.8811 105.546L68.9227 103.074C61.6306 102.372 54.2823 102.231 46.934 102.653L34.7712 103.327C27.4229 103.72 21.2289 97.9051 21.2289 90.5447V59.7546C21.2289 50.2872 28.8306 45.5114 51.5513 43.1796C73.0614 40.9884 90.5735 33.2347 90.5735 33.2347C90.5735 33.2347 95.6695 39.3028 99.949 42.7302C104.172 46.1294 106.706 51.2143 106.706 56.6082V94.8148Z" fill="white"/>
<path d="M33.3349 59.0239C30.9981 59.0239 29.1118 60.9062 29.1118 63.2379V75.5146C29.1118 77.8463 30.9981 79.7286 33.3349 79.7286C35.6718 79.7286 37.5581 77.8463 37.5581 75.5146V63.2379C37.53 60.9062 35.6436 59.0239 33.3349 59.0239Z" fill="white"/>
<path d="M81.0288 53.8828C78.2978 53.8828 76.0736 56.1022 76.0736 58.8272V73.2671C76.0736 75.9921 78.2978 78.2115 81.0288 78.2115C83.7598 78.2115 85.984 75.9921 85.984 73.2671V58.8272C85.984 56.1022 83.7598 53.8828 81.0288 53.8828Z" fill="white"/>
</g>
<defs>
<clipPath id="clip0">
<rect width="137" height="146" fill="white"/>
</clipPath>
</defs>
</svg>
